<?xml version="1.0" encoding="utf-8"?>
<!-- Generator: Adobe Illustrator 21.1.0, SVG Export Plug-In . SVG Version: 6.00 Build 0)  -->
<svg version="1.1" id="Icons" xmlns="http://www.w3.org/2000/svg" xmlns:xlink="http://www.w3.org/1999/xlink" x="0px" y="0px"
	 viewBox="0 0 48 48" style="enable-background:new 0 0 48 48;" xml:space="preserve">
<style type="text/css">
	.st0{opacity:0.15;fill:#45413C;}
	.st1{fill:#FF6196;}
	.st2{fill:#FF87AF;}
	.st3{fill:none;stroke:#45413C;stroke-linecap:round;stroke-linejoin:round;stroke-miterlimit:10;}
	.st4{fill:#FFE500;stroke:#45413C;stroke-linecap:round;stroke-linejoin:round;stroke-miterlimit:10;}
	.st5{fill:#FFE500;}
	.st6{fill:#EBCB00;}
	.st7{fill:#EBCB00;stroke:#45413C;stroke-linecap:round;stroke-linejoin:round;stroke-miterlimit:10;}
	.st8{fill:#FFF48C;}
	.st9{fill:#FFCCDD;stroke:#FFB0CA;stroke-linecap:round;stroke-linejoin:round;stroke-miterlimit:10;}
	.st10{fill:#FFB0CA;stroke:#FF87AF;stroke-linecap:round;stroke-linejoin:round;stroke-miterlimit:10;}
	.st11{opacity:0.7;fill:#FFE5EE;}
	.st12{fill:#009FD9;}
	.st13{fill:#00B8F0;}
	.st14{fill:#656769;}
	.st15{fill:#87898C;}
	.st16{fill:#FF6242;stroke:#45413C;stroke-linecap:round;stroke-linejoin:round;stroke-miterlimit:10;}
	.st17{fill:#4AEFF7;}
	.st18{fill:#00DFEB;}
	.st19{fill:#A6FBFF;}
	.st20{fill:#FFFFFF;}
	.st21{fill:#E5F8FF;}
	.st22{fill:#E5F8FF;stroke:#45413C;stroke-linecap:round;stroke-linejoin:round;stroke-miterlimit:10;}
	.st23{fill:#FFE500;stroke:#EBCB00;stroke-linecap:round;stroke-linejoin:round;stroke-miterlimit:10;}
	.st24{fill:#BDBEC0;}
	.st25{fill:#4ACFFF;}
	.st26{fill:#E8F4FA;stroke:#45413C;stroke-linecap:round;stroke-linejoin:round;stroke-miterlimit:10;}
	.st27{fill:#80DDFF;}
	.st28{fill:#009FD9;stroke:#45413C;stroke-linecap:round;stroke-linejoin:round;stroke-miterlimit:10;}
	.st29{fill:#B8ECFF;}
	.st30{fill:#4ACFFF;stroke:#45413C;stroke-linecap:round;stroke-linejoin:round;stroke-miterlimit:10;}
	.st31{fill:#B8ECFF;stroke:#45413C;stroke-linecap:round;stroke-linejoin:round;stroke-miterlimit:10;}
	.st32{fill:#FFFACF;}
	.st33{fill:#FFF48C;stroke:#45413C;stroke-linecap:round;stroke-linejoin:round;stroke-miterlimit:10;}
	.st34{fill:#BF8256;}
	.st35{fill:#DEA47A;}
	.st36{fill:#656769;stroke:#45413C;stroke-linecap:round;stroke-linejoin:round;stroke-miterlimit:10;}
	.st37{fill:#FF8A14;}
	.st38{fill:#FFAA54;}
	.st39{fill:#EB6D00;}
	.st40{fill:#627B8C;stroke:#45413C;stroke-linecap:round;stroke-linejoin:round;stroke-miterlimit:10;}
	.st41{fill:#FFFFFF;stroke:#45413C;stroke-linecap:round;stroke-linejoin:round;stroke-miterlimit:10;}
	.st42{fill:#E0366F;stroke:#45413C;stroke-linecap:round;stroke-linejoin:round;stroke-miterlimit:10;}
	.st43{fill:#FF87AF;stroke:#45413C;stroke-linecap:round;stroke-linejoin:round;stroke-miterlimit:10;}
	.st44{fill:#E0366F;}
	.st45{fill:#FF6196;stroke:#45413C;stroke-linecap:round;stroke-linejoin:round;stroke-miterlimit:10;}
	.st46{fill:#525252;}
	.st47{fill:#DEBB7E;}
	.st48{fill:#F0D5A8;}
	.st49{fill:#DAEDF7;}
	.st50{fill:#F7E5C6;}
	.st51{fill:#DEBB7E;stroke:#45413C;stroke-linecap:round;stroke-linejoin:round;stroke-miterlimit:10;}
	.st52{fill:#FFF5E3;}
	.st53{fill:#00F5BC;}
	.st54{fill:#FFB0CA;stroke:#45413C;stroke-linecap:round;stroke-linejoin:round;stroke-miterlimit:10;}
	.st55{fill:#8CFFE4;}
	.st56{fill:#00DBA8;}
	.st57{fill:#87898C;stroke:#45413C;stroke-linecap:round;stroke-linejoin:round;stroke-miterlimit:10;}
	.st58{fill:#FF6242;}
	.st59{fill:#FF866E;}
	.st60{fill:#F0F0F0;}
	.st61{fill:#BDBEC0;stroke:#45413C;stroke-width:1.0064;stroke-linecap:round;stroke-linejoin:round;stroke-miterlimit:10;}
	.st62{fill:#947746;stroke:#45413C;stroke-linecap:round;stroke-linejoin:round;stroke-miterlimit:10;}
	.st63{fill:#B89558;}
	.st64{fill:#E04122;}
	.st65{fill:#C0DCEB;}
	.st66{fill:#E8F4FA;}
	.st67{fill:#00B8F0;stroke:#45413C;stroke-linecap:round;stroke-linejoin:round;stroke-miterlimit:10;}
	.st68{fill:#80DDFF;stroke:#45413C;stroke-linecap:round;stroke-linejoin:round;stroke-miterlimit:10;}
	.st69{fill:#9CEB60;}
	.st70{fill:#C8FFA1;}
	.st71{fill:#FFB0CA;}
	.st72{fill:#FFCCDD;}
	.st73{fill:#FFE5EE;}
	.st74{fill:#45413C;stroke:#45413C;stroke-linecap:round;stroke-linejoin:round;stroke-miterlimit:10;}
	.st75{fill:#FFCABF;}
	.st76{fill:#FFA694;}
	.st77{fill:#FFA694;stroke:#45413C;stroke-linecap:round;stroke-linejoin:round;stroke-miterlimit:10;}
	.st78{fill:#FFCC99;}
	.st79{fill:#8CA4B8;}
	.st80{fill:#ADC4D9;}
	.st81{fill:#F0D5A8;stroke:#45413C;stroke-linecap:round;stroke-linejoin:round;stroke-miterlimit:10;}
	.st82{fill:#BDBEC0;stroke:#45413C;stroke-linecap:round;stroke-linejoin:round;stroke-miterlimit:10;}
	.st83{fill:#E0E0E0;}
	.st84{fill:#45413C;}
	.st85{fill:#E5FEFF;}
	.st86{fill:#FFFCE5;}
	.st87{fill:#FFAA54;stroke:#45413C;stroke-linecap:round;stroke-linejoin:round;stroke-miterlimit:10;}
	.st88{fill:#6DD627;}
	.st89{fill:#46B000;}
	.st90{fill:#FFE8E0;}
	.st91{fill:#FFCEBF;}
	.st92{fill:#FFE8D1;}
	.st93{fill:#FFF48C;stroke:#4F4B45;stroke-linecap:round;stroke-linejoin:round;stroke-miterlimit:10;}
	.st94{fill:#FFDCD1;stroke:#4F4B45;stroke-linejoin:round;stroke-miterlimit:10;}
	.st95{fill:none;stroke:#4F4B45;stroke-linejoin:round;stroke-miterlimit:10;}
	.st96{fill:none;stroke:#4F4B45;stroke-linecap:round;stroke-linejoin:round;stroke-miterlimit:10;}
	.st97{fill:#656769;stroke:#4F4B45;stroke-linejoin:round;stroke-miterlimit:10;}
	.st98{fill:#87898C;stroke:#4F4B45;stroke-linecap:round;stroke-linejoin:round;stroke-miterlimit:10;}
	.st99{fill:#C0DCEB;stroke:#4F4B45;stroke-linecap:round;stroke-linejoin:round;stroke-miterlimit:10;}
	.st100{fill:#FFA694;stroke:#4F4B45;stroke-linecap:round;stroke-linejoin:round;stroke-miterlimit:10;}
	.st101{fill:#E04122;stroke:#45413C;stroke-linecap:round;stroke-linejoin:round;stroke-miterlimit:10;}
	.st102{fill:#FFFCE5;stroke:#45413C;stroke-linecap:round;stroke-linejoin:round;stroke-miterlimit:10;}
	.st103{fill:#915E3A;}
	.st104{fill:none;stroke:#915E3A;stroke-linecap:round;stroke-linejoin:round;stroke-miterlimit:10;}
	.st105{fill:#915E3A;stroke:#45413C;stroke-linecap:round;stroke-linejoin:round;stroke-miterlimit:10;}
	.st106{fill:#FF866E;stroke:#45413C;stroke-linecap:round;stroke-linejoin:round;stroke-miterlimit:10;}
	.st107{fill:#FFF5E3;stroke:#45413C;stroke-linecap:round;stroke-linejoin:round;stroke-miterlimit:10;}
	.st108{fill:#FFDCD1;}
	.st109{fill:#FFDCD1;stroke:#45413C;stroke-linecap:round;stroke-linejoin:round;stroke-miterlimit:10;}
	.st110{fill:#F0C2A1;}
	.st111{fill:#FFE3CF;}
	.st112{fill:#FFFACF;stroke:#45413C;stroke-linecap:round;stroke-linejoin:round;stroke-miterlimit:10;}
	.st113{fill:#DEA47A;stroke:#45413C;stroke-linecap:round;stroke-linejoin:round;stroke-miterlimit:10;}
	.st114{fill:#F0C2A1;stroke:#45413C;stroke-linecap:round;stroke-linejoin:round;stroke-miterlimit:10;}
	.st115{fill:#EB6D00;stroke:#45413C;stroke-linecap:round;stroke-linejoin:round;stroke-miterlimit:10;}
	.st116{fill:#FF8A14;stroke:#45413C;stroke-linecap:round;stroke-linejoin:round;stroke-miterlimit:10;}
	.st117{fill:#D9FDFF;}
	.st118{fill:#C8FFA1;stroke:#45413C;stroke-linecap:round;stroke-linejoin:round;stroke-miterlimit:10;}
	.st119{fill:#E4FFD1;}
	.st120{fill:#E0E0E0;stroke:#45413C;stroke-linecap:round;stroke-linejoin:round;stroke-miterlimit:10;}
	.st121{fill:#FFCCDD;stroke:#45413C;stroke-linecap:round;stroke-linejoin:round;stroke-miterlimit:10;}
	.st122{fill:#BF8256;stroke:#45413C;stroke-linecap:round;stroke-linejoin:round;stroke-miterlimit:10;}
	.st123{fill:#C0DCEB;stroke:#45413C;stroke-linecap:round;stroke-linejoin:round;stroke-miterlimit:10;}
</style>
<g>
	<ellipse id="XMLID_11900_" class="st0" cx="24" cy="45.1" rx="16.8" ry="1.9"/>
	<path id="XMLID_11899_" class="st85" d="M13.4,16.6c0,0,0.1-3,3.7-8.1s6.9-5.5,7.5-5c0.5,0.5,0.9,4.1-2.5,8.7
		c-3.1,4.2-6.2,5.6-6.2,5.6L13.4,16.6z"/>
	<path id="XMLID_11898_" class="st20" d="M17.2,12.6c3.6-5,6.8-5.5,7.4-5c0.7-2.2,0.4-3.7,0-4.1c-0.5-0.5-3.8-0.2-7.5,5
		s-3.7,8.1-3.7,8.1l1.1,0.5C15.1,15.9,15.9,14.4,17.2,12.6z"/>
	<path id="XMLID_11897_" class="st3" d="M13.4,16.6c0,0,0.1-3,3.7-8.1s6.9-5.5,7.5-5c0.5,0.5,0.9,4.1-2.5,8.7
		c-3.1,4.2-6.2,5.6-6.2,5.6L13.4,16.6z"/>
	<circle id="XMLID_11896_" class="st41" cx="40.9" cy="24.7" r="3.1"/>
	<path class="st85" d="M42.1,31.6c0-8.3-7.5-9.4-12.5-9.4c-5,0-8.1,0-8.1,0s-0.3-1.2-1.1-2.5c1.2-0.1,3.3-0.4,6-1.2
		c5.3-1.6,9-4.1,8.7-5s-3.6-1.9-10-0.6c-4.2,0.8-6.9,2.7-8.2,3.9c-0.2-0.1-0.3-0.1-0.5-0.1c-3.6-0.8-6.8,1.2-8.7,2.5
		c-1.9,1.3-3.1,2.5-3.1,2.5s0.3,4.1,3.7,5.6c2.7,1.2,5,0.6,5,0.6s0.3,4.1,2.6,6.4l-2,7.6h-0.6c-0.8,0-1.6,0.8-2,1.7
		c-0.4,0.8,0.2,1.8,1.1,1.8h3.5c1,0,2-0.7,2.3-1.6l2.8-7.5c2.7,0.4,5.6,0.4,7,0.4c0.2,3.1,2.4,5.1,2.4,5.1h-2.7c-2.3,0-2.9,1.1-3,2
		c-0.1,0.7,0.5,1.3,1.2,1.3h5.2C35.9,45,42.1,39.7,42.1,31.6z"/>
	<g id="XMLID_11893_">
		<path id="XMLID_11895_" class="st20" d="M21.6,22.2c0,1.3,1.1,2.4,2.4,2.4c1.4,0,3.3,0,5.7,0c4.8,0,11.8,1,12.4,8.3
			c0-0.4,0.1-0.9,0.1-1.4c0-8.3-7.5-9.4-12.5-9.4S21.6,22.2,21.6,22.2z"/>
		<path id="XMLID_11894_" class="st20" d="M7.8,21.5c1.9-1.3,5.1-3.3,8.7-2.5c0.2,0,0.3,0.1,0.5,0.1c1.4-1.2,4.1-3.1,8.2-3.9
			c4.2-0.8,7.1-0.7,8.6-0.2c0.9-0.7,1.4-1.2,1.3-1.6c-0.2-0.9-3.6-1.9-10-0.6c-4.2,0.8-6.9,2.7-8.2,3.9c-0.2-0.1-0.3-0.1-0.5-0.1
			c-3.6-0.8-6.8,1.2-8.7,2.5c-1.9,1.3-3.1,2.5-3.1,2.5s0.1,0.9,0.5,2C5.7,23.1,6.6,22.4,7.8,21.5z"/>
	</g>
	<path class="st3" d="M42.1,31.6c0-8.3-7.5-9.4-12.5-9.4c-5,0-8.1,0-8.1,0s-0.3-1.2-1.1-2.5c1.2-0.1,3.3-0.4,6-1.2
		c5.3-1.6,9-4.1,8.7-5s-3.6-1.9-10-0.6c-4.2,0.8-6.9,2.7-8.2,3.9c-0.2-0.1-0.3-0.1-0.5-0.1c-3.6-0.8-6.8,1.2-8.7,2.5
		c-1.9,1.3-3.1,2.5-3.1,2.5s0.3,4.1,3.7,5.6c2.7,1.2,5,0.6,5,0.6s0.3,4.1,2.6,6.4l-2,7.6h-0.6c-0.8,0-1.6,0.8-2,1.7
		c-0.4,0.8,0.2,1.8,1.1,1.8h3.5c1,0,2-0.7,2.3-1.6l2.8-7.5c2.7,0.4,5.6,0.4,7,0.4c0.2,3.1,2.4,5.1,2.4,5.1h-2.7c-2.3,0-2.9,1.1-3,2
		c-0.1,0.7,0.5,1.3,1.2,1.3h5.2C35.9,45,42.1,39.7,42.1,31.6z"/>
	<path id="XMLID_11892_" class="st3" d="M30.6,41.6c0,0-4.1-3.7-1.6-9.1"/>
	<path id="XMLID_11891_" class="st77" d="M21,19.7c1.3-0.1,3.1-0.4,5.5-1.2c3.1-0.9,5.6-2.2,7.1-3.2c-1.4-0.7-3.6-0.9-7.1,0.1
		C21.8,16.7,21.3,19.2,21,19.7z"/>
	<circle id="XMLID_11890_" class="st84" cx="13.7" cy="20.6" r="1.2"/>
	<ellipse id="XMLID_11889_" class="st78" cx="17.4" cy="23.5" rx="1.2" ry="0.6"/>
	<path id="XMLID_11888_" class="st77" d="M7.7,22.2c0-0.7-1-1.2-2.3-1.2c-0.4,0.4-0.7,0.6-0.7,0.6s0.1,0.9,0.5,2.1
		C6.7,23.8,7.7,22.8,7.7,22.2z"/>
</g>
</svg>
